HIERARCHY
ROOT Hips
{
	OFFSET 54.982300 -17.185614 86.272400
	CHANNELS 6 Xposition Yposition Zposition Xrotation Yrotation Zrotation
	JOINT spine
	{
		OFFSET 0.000000 -0.393702 6.846367
		CHANNELS 3 Xrotation Yrotation Zrotation
		JOINT spine1
		{
			OFFSET 0.000000 -0.000002 9.496208
			CHANNELS 3 Xrotation Yrotation Zrotation
			JOINT spine2
			{
				OFFSET 0.000000 -0.000002 9.099091
				CHANNELS 3 Xrotation Yrotation Zrotation
				JOINT Neck
				{
					OFFSET 0.000000 -1.113785 23.361206
					CHANNELS 3 Xrotation Yrotation Zrotation
					JOINT Head
					{
						OFFSET 0.000000 0.000000 7.058014
						CHANNELS 3 Xrotation Yrotation Zrotation
						End Site
						{
							OFFSET 0.000000 5.634187 17.084396
						}
					}
				}
				JOINT RightShoulder
				{
					OFFSET -3.831360 0.533491 9.826309
					CHANNELS 3 Xrotation Yrotation Zrotation
					JOINT RightArm
					{
						OFFSET 0.000000 -0.000002 12.888092
						CHANNELS 3 Xrotation Yrotation Zrotation
						JOINT RightArmRoll
						{
							OFFSET 0.000000 -0.000002 6.506165
							CHANNELS 3 Xrotation Yrotation Zrotation
							JOINT RightForeArm
							{
								OFFSET 0.000000 -0.000004 18.950104
								CHANNELS 3 Xrotation Yrotation Zrotation
								JOINT RightForeArmRoll
								{
									OFFSET 0.000000 0.000000 7.300934
									CHANNELS 3 Xrotation Yrotation Zrotation
									JOINT RightHand
									{
										OFFSET 0.000000 -0.000004 14.651398
										CHANNELS 3 Xrotation Yrotation Zrotation
										End Site
										{
											OFFSET 0.000000 0.000000 0.100006
										}
									}
								}
							}
						}
					}
				}
				JOINT LeftShoulder
				{
					OFFSET 3.831360 0.533491 9.826309
					CHANNELS 3 Xrotation Yrotation Zrotation
					JOINT LeftArm
					{
						OFFSET 0.000000 -0.000002 12.888092
						CHANNELS 3 Xrotation Yrotation Zrotation
						JOINT LeftArmRoll
						{
							OFFSET 0.000000 -0.000002 6.506165
							CHANNELS 3 Xrotation Yrotation Zrotation
							JOINT LeftForeArm
							{
								OFFSET 0.000000 -0.000004 18.950104
								CHANNELS 3 Xrotation Yrotation Zrotation
								JOINT LeftForeArmRoll
								{
									OFFSET 0.000000 0.000000 7.300919
									CHANNELS 3 Xrotation Yrotation Zrotation
									JOINT LeftHand
									{
										OFFSET 0.000000 -0.000004 14.651398
										CHANNELS 3 Xrotation Yrotation Zrotation
										End Site
										{
											OFFSET 0.000000 0.000000 0.100006
										}
									}
								}
							}
						}
					}
				}
			}
		}
	}
	JOINT RightUpLeg
	{
		OFFSET -6.068371 0.933477 -1.112778
		CHANNELS 3 Xrotation Yrotation Zrotation
		JOINT RightUpLegRoll
		{
			OFFSET 0.000000 -0.000004 17.179596
			CHANNELS 3 Xrotation Yrotation Zrotation
			JOINT RightLeg
			{
				OFFSET 0.000000 0.000004 -21.274300
				CHANNELS 3 Xrotation Yrotation Zrotation
				JOINT RightLegRoll
				{
					OFFSET 0.000000 -0.000004 21.343903
					CHANNELS 3 Xrotation Yrotation Zrotation
					JOINT RightFoot
					{
						OFFSET 0.000000 -0.000002 17.765198
						CHANNELS 3 Xrotation Yrotation Zrotation
						JOINT RightToeBase
						{
							OFFSET 0.000000 -0.000004 14.850792
							CHANNELS 3 Xrotation Yrotation Zrotation
							End Site
							{
								OFFSET 0.006294 0.829004 7.192139
							}
						}
					}
				}
			}
		}
	}
	JOINT LeftUpLeg
	{
		OFFSET 6.068371 0.933477 -1.112778
		CHANNELS 3 Xrotation Yrotation Zrotation
		JOINT LeftUpLegRoll
		{
			OFFSET 0.000000 -0.000004 17.179703
			CHANNELS 3 Xrotation Yrotation Zrotation
			JOINT LeftLeg
			{
				OFFSET 0.000000 -0.000004 21.274200
				CHANNELS 3 Xrotation Yrotation Zrotation
				JOINT LeftLegRoll
				{
					OFFSET 0.000000 -0.000002 21.541199
					CHANNELS 3 Xrotation Yrotation Zrotation
					JOINT LeftFoot
					{
						OFFSET 0.000000 -0.000004 17.567902
						CHANNELS 3 Xrotation Yrotation Zrotation
						JOINT LeftToeBase
						{
							OFFSET 0.000000 -0.000002 14.850800
							CHANNELS 3 Xrotation Yrotation Zrotation
							End Site
							{
								OFFSET -0.028210 0.829003 7.192139
							}
						}
					}
				}
			}
		}
	}
}
MOTION
Frames: 7
Frame Time: 0.041667
52.876495 -4.047340 82.266708 8.511807 1.522035 1.926479 -2.700822 -1.583520 0.551994 -1.385094 -3.187061 1.045289 0.260921 -3.174317 1.083428 -8.237409 16.212205 -3.408276 9.071605 -12.994594 -5.584005 -11.151080 -45.136943 -12.375983 -116.786795 -132.856755 -66.881738 -0.000002 0.000000 -0.000002 -0.024344 2.834632 0.679947 -0.000002 0.000012 -3.056388 -5.000219 -7.998752 0.000155 -19.147030 64.175269 22.601410 -101.168127 140.315090 43.121556 0.000000 -0.000004 0.000007 1.739875 -13.778987 -3.818059 0.000003 -0.000014 2.993291 -5.000180 7.998733 -0.000178 -32.197802 -173.297800 2.776946 -179.999991 0.000005 -0.570999 135.956705 -8.693578 -3.515854 0.000003 -0.000007 0.167087 84.340262 7.089695 -0.310204 25.456912 -7.354846 0.000004 -31.532907 -184.645667 -1.207360 -0.000006 -0.000005 -0.645176 -45.803973 5.410952 2.531004 0.000002 -0.000002 -0.509752 87.384300 -6.986798 0.494692 25.456947 7.353774 -0.000003 
52.866600 -4.056531 82.429710 8.432544 1.518283 1.977257 -2.716484 -1.578825 0.544976 -1.416649 -3.177571 1.030978 0.229364 -3.164996 1.069003 -8.005159 16.279209 -3.435960 9.104058 -13.047243 -5.583541 -11.098307 -44.879978 -12.291597 -117.063582 -133.371765 -67.094984 -0.000000 0.000003 -0.000003 -0.024581 2.863940 0.683197 0.000004 0.000012 -3.054499 -5.000218 -7.998752 0.000150 -19.163079 64.028126 22.620700 -101.461115 141.015730 43.374491 -0.000001 -0.000004 0.000009 2.033100 -13.809436 -3.791479 -0.000001 -0.000018 2.993099 -5.000181 7.998738 -0.000178 -31.846423 -173.319247 2.767063 -179.999991 0.000005 -0.580001 136.485457 -8.671894 -3.483747 0.000003 -0.000007 0.165396 84.087777 7.092720 -0.274266 25.456909 -7.354853 -0.000002 -31.202753 -184.570221 -1.168912 -0.000006 -0.000005 -0.656609 -45.288549 5.348720 2.494232 0.000004 -0.000002 -0.517230 87.123789 -6.990109 0.451499 25.456948 7.353793 -0.000002 
52.890091 -4.090746 82.551109 8.354477 1.513641 2.027302 -2.732232 -1.574230 0.538014 -1.448405 -3.168280 1.016781 0.197601 -3.155881 1.054699 -7.770942 16.351845 -3.463156 9.137939 -13.104572 -5.582172 -11.043828 -44.617705 -12.204597 -117.327542 -133.883661 -67.292410 -0.000001 0.000000 -0.000002 -0.024684 2.894531 0.686565 0.000001 0.000011 -3.052559 -5.000222 -7.998759 0.000149 -19.185752 63.883702 22.647555 -101.748263 141.726207 43.631781 -0.000006 -0.000006 0.000009 2.331850 -13.833681 -3.763524 0.000000 -0.000017 2.993201 -5.000182 7.998734 -0.000178 -31.490058 -173.345201 2.755197 -179.999991 0.000005 -0.590000 137.027884 -8.643040 -3.450605 0.000002 -0.000007 0.164962 83.828244 7.094703 -0.234028 25.456912 -7.354854 -0.000002 -30.866554 -184.490827 -1.128918 -0.000007 -0.000005 -0.668662 -44.759695 5.282317 2.456714 0.000000 -0.000002 -0.525370 86.856756 -6.992849 0.405801 25.456947 7.353801 -0.000005 
52.878796 -4.110806 82.718712 8.277298 1.508228 2.076172 -2.747962 -1.569764 0.531341 -1.480101 -3.159229 1.003161 0.165904 -3.146987 1.040967 -7.534987 16.428813 -3.490546 9.172678 -13.165910 -5.580422 -10.989149 -44.351273 -12.117019 -117.580518 -134.393794 -67.476641 -0.000000 0.000001 -0.000006 -0.024685 2.926123 0.690011 0.000002 0.000011 -3.050592 -5.000217 -7.998757 0.000153 -19.212439 63.741115 22.679005 -102.028492 142.445385 43.891540 -0.000004 -0.000003 0.000009 2.628622 -13.854278 -3.735270 0.000001 -0.000017 2.993571 -5.000182 7.998734 -0.000178 -31.127600 -173.375705 2.741394 -179.999991 0.000005 -0.600997 137.586224 -8.607815 -3.413978 0.000001 -0.000007 0.165614 83.560357 7.095865 -0.189908 25.456911 -7.354866 0.000004 -30.523402 -184.409206 -1.086962 -0.000008 -0.000005 -0.681201 -44.215783 5.212368 2.418268 0.000003 -0.000002 -0.533915 86.582408 -6.995215 0.357950 25.456941 7.353801 -0.000005 
52.897995 -4.143225 82.846809 8.200718 1.502205 2.123427 -2.763543 -1.565409 0.525193 -1.511465 -3.150426 0.990594 0.134536 -3.138333 1.028295 -7.297559 16.509006 -3.518716 9.207707 -13.230485 -5.578828 -10.935680 -44.081539 -12.030781 -117.824178 -134.903599 -67.650114 -0.000002 0.000000 -0.000004 -0.024614 2.958461 0.693498 0.000004 0.000012 -3.048599 -5.000218 -7.998754 0.000153 -19.240588 63.599477 22.712117 -102.300640 143.172048 44.151248 -0.000004 -0.000003 0.000009 2.915917 -13.873515 -3.707763 0.000000 -0.000016 2.994130 -5.000179 7.998737 -0.000177 -30.757763 -173.410689 2.725734 -179.999991 0.000005 -0.613005 138.162583 -8.566965 -3.375453 0.000002 -0.000007 0.167182 83.282826 7.096380 -0.142313 25.456909 -7.354864 0.000003 -30.172299 -184.325359 -1.043666 -0.000008 -0.000004 -0.694093 -43.655185 5.139493 2.378654 -0.000001 -0.000002 -0.542611 86.299864 -6.997329 0.308194 25.456945 7.353819 -0.000005 
52.902298 -4.169924 83.013115 8.124408 1.495721 2.168614 -2.778824 -1.561183 0.519805 -1.542239 -3.141905 0.979550 0.103764 -3.129945 1.017155 -7.058910 16.591125 -3.548304 9.242439 -13.297722 -5.577925 -10.884888 -43.809670 -11.947871 -118.060216 -135.414525 -67.815241 -0.000001 0.000004 -0.000002 -0.024502 2.991282 0.696987 0.000001 0.000012 -3.046608 -5.000219 -7.998752 0.000152 -19.267837 63.458051 22.744188 -102.563835 143.905037 44.408862 -0.000004 -0.000004 0.000009 3.186221 -13.893731 -3.682005 0.000000 -0.000016 2.994859 -5.000179 7.998735 -0.000179 -30.379261 -173.450140 2.708279 -179.999991 0.000005 -0.624998 138.759309 -8.521286 -3.333556 0.000003 -0.000006 0.169496 82.994551 7.096263 -0.091582 25.456912 -7.354873 -0.000003 -29.812058 -184.239340 -0.999644 -0.000007 -0.000005 -0.707204 -43.076681 5.064278 2.337716 0.000000 -0.000002 -0.551203 86.008440 -6.999141 0.257003 25.456945 7.353828 -0.000009 
52.920597 -4.196320 83.143707 8.048077 1.488924 2.211287 -2.793696 -1.557099 0.515411 -1.572141 -3.133693 0.970516 0.073857 -3.121838 1.008012 -6.819295 16.673863 -3.579885 9.276304 -13.366858 -5.578248 -10.838123 -43.536637 -11.870127 -118.290202 -135.927977 -67.974329 -0.000000 0.000005 -0.000003 -0.024379 3.024311 0.700439 0.000000 0.000006 -3.044653 -5.000219 -7.998750 0.000149 -19.291726 63.315942 22.772361 -102.817344 144.643039 44.662604 -0.000003 -0.000005 0.000007 3.432085 -13.917573 -3.658912 -0.000000 -0.000015 2.995709 -5.000180 7.998734 -0.000176 -29.990801 -173.494072 2.689102 -179.999991 0.000005 -0.638003 139.378384 -8.470731 -3.288240 0.000004 -0.000006 0.172388 82.694186 7.095763 -0.038115 25.456912 -7.354874 -0.000003 -29.441749 -184.152828 -0.954524 -0.000005 -0.000005 -0.720402 -42.478408 4.987333 2.295172 0.000001 -0.000002 -0.559433 85.707311 -7.000806 0.204398 25.456948 7.353838 -0.000003 
